<svg xmlns="http://www.w3.org/2000/svg" xmlns:xlink="http://www.w3.org/1999/xlink" width="108" height="108" viewBox="0 0 108 108">
  <defs>
    <filter id="Trazado_982538" x="0" y="0" width="108" height="108" filterUnits="userSpaceOnUse">
      <feOffset dy="3" input="SourceAlpha"/>
      <feGaussianBlur stdDeviation="3" result="blur"/>
      <feFlood flood-opacity="0.161"/>
      <feComposite operator="in" in2="blur"/>
      <feComposite in="SourceGraphic"/>
    </filter>
    <clipPath id="clip-path">
      <rect id="Rectángulo_408569" data-name="Rectángulo 408569" width="60" height="60" transform="translate(0 0)" fill="none"/>
    </clipPath>
  </defs>
  <g id="Grupo_1151969" data-name="Grupo 1151969" transform="translate(-201 -390)">
    <g id="Grupo_1151920" data-name="Grupo 1151920" transform="translate(0 -9900)">
      <g id="Grupo_1150893" data-name="Grupo 1150893" transform="translate(0 7321)">
        <g transform="matrix(1, 0, 0, 1, 201, 2969)" filter="url(#Trazado_982538)">
          <g id="Trazado_982538-2" data-name="Trazado 982538" transform="translate(9 6)" fill="#f3f3f3">
            <path d="M 45 88.5 C 39.12687683105469 88.5 33.43022537231445 87.35007476806641 28.06830024719238 85.08217620849609 C 22.88852500915527 82.89131164550781 18.23629951477051 79.75458526611328 14.2408504486084 75.75914764404297 C 10.24541282653809 71.76370239257812 7.108687400817871 67.11147308349609 4.917825222015381 61.93170166015625 C 2.649924993515015 56.56977462768555 1.5 50.87312316894531 1.5 45 C 1.5 39.12687683105469 2.649924993515015 33.43022537231445 4.917825222015381 28.06830024719238 C 7.108687400817871 22.88852500915527 10.24541282653809 18.23629951477051 14.2408504486084 14.2408504486084 C 18.23629951477051 10.24541282653809 22.88852500915527 7.108687400817871 28.06830024719238 4.917825222015381 C 33.43022537231445 2.649924993515015 39.12687683105469 1.5 45 1.5 C 50.87312316894531 1.5 56.56977462768555 2.649924993515015 61.93170166015625 4.917825222015381 C 67.11147308349609 7.108687400817871 71.76370239257812 10.24541282653809 75.75914764404297 14.2408504486084 C 79.75458526611328 18.23629951477051 82.89131164550781 22.88852500915527 85.08217620849609 28.06830024719238 C 87.35007476806641 33.43022537231445 88.5 39.12687683105469 88.5 45 C 88.5 50.87312316894531 87.35007476806641 56.56977462768555 85.08217620849609 61.93170166015625 C 82.89131164550781 67.11147308349609 79.75458526611328 71.76370239257812 75.75914764404297 75.75914764404297 C 71.76370239257812 79.75458526611328 67.11147308349609 82.89131164550781 61.93170166015625 85.08217620849609 C 56.56977462768555 87.35007476806641 50.87312316894531 88.5 45 88.5 Z" stroke="none"/>
            <path d="M 45 3 C 39.32871246337891 3 33.82865524291992 4.110054016113281 28.65262985229492 6.299339294433594 C 23.65165710449219 8.414573669433594 19.15968322753906 11.44334411621094 15.301513671875 15.301513671875 C 11.44334411621094 19.15968322753906 8.414573669433594 23.65165710449219 6.299339294433594 28.65262985229492 C 4.110054016113281 33.82865524291992 3 39.32871246337891 3 45 C 3 50.67128753662109 4.110054016113281 56.17134475708008 6.299339294433594 61.34737396240234 C 8.414573669433594 66.34834289550781 11.44334411621094 70.84031677246094 15.301513671875 74.698486328125 C 19.15968322753906 78.55665588378906 23.65165710449219 81.58542633056641 28.65262985229492 83.70066070556641 C 33.82865524291992 85.88994598388672 39.32871246337891 87 45 87 C 50.67128753662109 87 56.17134475708008 85.88994598388672 61.34737396240234 83.70066070556641 C 66.34834289550781 81.58542633056641 70.84031677246094 78.55665588378906 74.698486328125 74.698486328125 C 78.55665588378906 70.84031677246094 81.58542633056641 66.34834289550781 83.70066070556641 61.34737396240234 C 85.88994598388672 56.17134475708008 87 50.67128753662109 87 45 C 87 39.32871246337891 85.88994598388672 33.82865524291992 83.70066070556641 28.65262985229492 C 81.58542633056641 23.65165710449219 78.55665588378906 19.15968322753906 74.698486328125 15.301513671875 C 70.84031677246094 11.44334411621094 66.34834289550781 8.414573669433594 61.34737396240234 6.299339294433594 C 56.17134475708008 4.110054016113281 50.67128753662109 3 45 3 M 45 0 C 69.85281372070312 0 90 20.14718627929688 90 45 C 90 69.85281372070312 69.85281372070312 90 45 90 C 20.14718627929688 90 0 69.85281372070312 0 45 C 0 20.14718627929688 20.14718627929688 0 45 0 Z" stroke="none" fill="#00282e"/>
          </g>
        </g>
      </g>
    </g>
    <g id="Grupo_1151951" data-name="Grupo 1151951" transform="translate(225 409)">
      <path id="Trazado_987122" data-name="Trazado 987122" d="M59,11V23H1V11L30,1Z" fill="#a7a9ac"/>
      <g id="Grupo_1151950" data-name="Grupo 1151950">
        <g id="Grupo_1151949" data-name="Grupo 1151949" clip-path="url(#clip-path)">
          <path id="Trazado_987123" data-name="Trazado 987123" d="M33.87,19H55V13.85L36.621,7.51A8,8,0,0,1,33.87,19" fill="#57a4ff"/>
          <path id="Trazado_987124" data-name="Trazado 987124" d="M22,12a7.964,7.964,0,0,1,1.379-4.49L5,13.85V19H26.13A8,8,0,0,1,22,12" fill="#57a4ff"/>
          <path id="Trazado_987125" data-name="Trazado 987125" d="M26,27h8a3,3,0,0,0,3-3V23H23v1a3,3,0,0,0,3,3" fill="#006df0"/>
          <rect id="Rectángulo_408563" data-name="Rectángulo 408563" width="8" height="20" transform="translate(26 27)" fill="#57a4ff"/>
          <path id="Trazado_987126" data-name="Trazado 987126" d="M41,24a3,3,0,0,0,3,3h8a3,3,0,0,0,3-3V23H41Z" fill="#006df0"/>
          <rect id="Rectángulo_408564" data-name="Rectángulo 408564" width="8" height="20" transform="translate(44 27)" fill="#57a4ff"/>
          <path id="Trazado_987127" data-name="Trazado 987127" d="M19,24V23H5v1a3,3,0,0,0,3,3h8a3,3,0,0,0,3-3" fill="#006df0"/>
          <path id="Trazado_987128" data-name="Trazado 987128" d="M34,47H26a3,3,0,0,0-3,3v1H37V50a3,3,0,0,0-3-3" fill="#006df0"/>
          <path id="Trazado_987129" data-name="Trazado 987129" d="M41,50v1H55V50a3,3,0,0,0-3-3H44a3,3,0,0,0-3,3" fill="#006df0"/>
          <path id="Trazado_987130" data-name="Trazado 987130" d="M19,50a3,3,0,0,0-3-3H8a3,3,0,0,0-3,3v1H19Z" fill="#006df0"/>
          <rect id="Rectángulo_408565" data-name="Rectángulo 408565" width="8" height="20" transform="translate(8 27)" fill="#57a4ff"/>
          <rect id="Rectángulo_408566" data-name="Rectángulo 408566" width="3" height="20" transform="translate(8 27)" fill="#2488ff"/>
          <rect id="Rectángulo_408567" data-name="Rectángulo 408567" width="3" height="20" transform="translate(26 27)" fill="#2488ff"/>
          <rect id="Rectángulo_408568" data-name="Rectángulo 408568" width="3" height="20" transform="translate(44 27)" fill="#2488ff"/>
          <path id="Trazado_987131" data-name="Trazado 987131" d="M37,51H3v4H57V51H37Z" fill="#a7a9ac"/>
          <path id="Trazado_987132" data-name="Trazado 987132" d="M1,55v4H59V55H1Z" fill="#808285"/>
          <path id="Trazado_987133" data-name="Trazado 987133" d="M36.621,7.511A8,8,0,1,0,38,12a7.991,7.991,0,0,0-1.379-4.49" fill="#ffb655"/>
          <path id="Trazado_987134" data-name="Trazado 987134" d="M25.9,20A8.921,8.921,0,0,0,34.1,20H55a1,1,0,0,0,1-1V13.85a1,1,0,0,0-.674-.945l-18.1-6.243a8.966,8.966,0,0,0-14.458,0L4.674,12.9A1,1,0,0,0,4,13.85V19a1,1,0,0,0,1,1ZM54,14.563V18H36.689a8.941,8.941,0,0,0,1.873-8.763ZM30,5a7,7,0,1,1-7,7,7.008,7.008,0,0,1,7-7M6,14.563,21.438,9.237A8.941,8.941,0,0,0,23.311,18H6Z" fill="#231f20"/>
          <path id="Trazado_987135" data-name="Trazado 987135" d="M56,24h3a1,1,0,0,0,1-1V11a1,1,0,0,0-.674-.945l-29-10a.985.985,0,0,0-.652,0l-29,10A1,1,0,0,0,0,11V23a1,1,0,0,0,1,1H4a4,4,0,0,0,3,3.858V46.142A4,4,0,0,0,4,50H3a1,1,0,0,0-1,1v3H1a1,1,0,0,0-1,1v4a1,1,0,0,0,1,1H59a1,1,0,0,0,1-1V55a1,1,0,0,0-1-1H58V51a1,1,0,0,0-1-1H56a4,4,0,0,0-3-3.858V27.858A4,4,0,0,0,56,24m-4,2H44a2,2,0,0,1-2-2H54a2,2,0,0,1-2,2M51,46H45V28h6ZM40,50H38a4,4,0,0,0-3-3.858V27.858A4,4,0,0,0,38,24h2a4,4,0,0,0,3,3.858V46.142A4,4,0,0,0,40,50M20,50a4,4,0,0,0-3-3.858V27.858A4,4,0,0,0,20,24h2a4,4,0,0,0,3,3.858V46.142A4,4,0,0,0,22,50ZM9,28h6V46H9Zm18,0h6V46H27Zm7-2H26a2,2,0,0,1-2-2H36a2,2,0,0,1-2,2M26,48h8a2,2,0,0,1,2,2H24a2,2,0,0,1,2-2M2,22V11.713L30,2.058l28,9.655V22Zm4,2H18a2,2,0,0,1-2,2H8a2,2,0,0,1-2-2M8,48h8a2,2,0,0,1,2,2H6a2,2,0,0,1,2-2M58,58H2V56H58ZM4,52H56v2H4Zm50-2H42a2,2,0,0,1,2-2h8a2,2,0,0,1,2,2" fill="#231f20"/>
          <path id="Trazado_987136" data-name="Trazado 987136" d="M29,6V7.184A2.993,2.993,0,0,0,30,13a1,1,0,1,1-1,1,1,1,0,0,0-2,0,3,3,0,0,0,2,2.816V18a1,1,0,0,0,2,0V16.816A2.993,2.993,0,0,0,30,11a1,1,0,1,1,1-1,1,1,0,0,0,2,0,3,3,0,0,0-2-2.816V6a1,1,0,0,0-2,0" fill="#231f20"/>
        </g>
      </g>
    </g>
  </g>
</svg>
