<svg xmlns="http://www.w3.org/2000/svg" xmlns:xlink="http://www.w3.org/1999/xlink" width="108" height="108" viewBox="0 0 108 108">
  <defs>
    <filter id="Trazado_982538" x="0" y="0" width="108" height="108" filterUnits="userSpaceOnUse">
      <feOffset dy="3" input="SourceAlpha"/>
      <feGaussianBlur stdDeviation="3" result="blur"/>
      <feFlood flood-opacity="0.161"/>
      <feComposite operator="in" in2="blur"/>
      <feComposite in="SourceGraphic"/>
    </filter>
    <clipPath id="clip-path">
      <rect id="Rectángulo_408562" data-name="Rectángulo 408562" width="53.832" height="52.129" fill="none"/>
    </clipPath>
  </defs>
  <g id="Grupo_1151970" data-name="Grupo 1151970" transform="translate(-1299 -397)">
    <g id="Grupo_1151621" data-name="Grupo 1151621" transform="translate(1308 403)">
      <g id="Grupo_1150893" data-name="Grupo 1150893">
        <g transform="matrix(1, 0, 0, 1, -9, -6)" filter="url(#Trazado_982538)">
          <g id="Trazado_982538-2" data-name="Trazado 982538" transform="translate(9 6)" fill="#f3f3f3">
            <path d="M 45 88.5 C 39.12687683105469 88.5 33.43022537231445 87.35007476806641 28.06830024719238 85.08217620849609 C 22.88852500915527 82.89131164550781 18.23629951477051 79.75458526611328 14.2408504486084 75.75914764404297 C 10.24541282653809 71.76370239257812 7.108687400817871 67.11147308349609 4.917825222015381 61.93170166015625 C 2.649924993515015 56.56977462768555 1.5 50.87312316894531 1.5 45 C 1.5 39.12687683105469 2.649924993515015 33.43022537231445 4.917825222015381 28.06830024719238 C 7.108687400817871 22.88852500915527 10.24541282653809 18.23629951477051 14.2408504486084 14.2408504486084 C 18.23629951477051 10.24541282653809 22.88852500915527 7.108687400817871 28.06830024719238 4.917825222015381 C 33.43022537231445 2.649924993515015 39.12687683105469 1.5 45 1.5 C 50.87312316894531 1.5 56.56977462768555 2.649924993515015 61.93170166015625 4.917825222015381 C 67.11147308349609 7.108687400817871 71.76370239257812 10.24541282653809 75.75914764404297 14.2408504486084 C 79.75458526611328 18.23629951477051 82.89131164550781 22.88852500915527 85.08217620849609 28.06830024719238 C 87.35007476806641 33.43022537231445 88.5 39.12687683105469 88.5 45 C 88.5 50.87312316894531 87.35007476806641 56.56977462768555 85.08217620849609 61.93170166015625 C 82.89131164550781 67.11147308349609 79.75458526611328 71.76370239257812 75.75914764404297 75.75914764404297 C 71.76370239257812 79.75458526611328 67.11147308349609 82.89131164550781 61.93170166015625 85.08217620849609 C 56.56977462768555 87.35007476806641 50.87312316894531 88.5 45 88.5 Z" stroke="none"/>
            <path d="M 45 3 C 39.32871246337891 3 33.82865524291992 4.110054016113281 28.65262985229492 6.299339294433594 C 23.65165710449219 8.414573669433594 19.15968322753906 11.44334411621094 15.301513671875 15.301513671875 C 11.44334411621094 19.15968322753906 8.414573669433594 23.65165710449219 6.299339294433594 28.65262985229492 C 4.110054016113281 33.82865524291992 3 39.32871246337891 3 45 C 3 50.67128753662109 4.110054016113281 56.17134475708008 6.299339294433594 61.34737396240234 C 8.414573669433594 66.34834289550781 11.44334411621094 70.84031677246094 15.301513671875 74.698486328125 C 19.15968322753906 78.55665588378906 23.65165710449219 81.58542633056641 28.65262985229492 83.70066070556641 C 33.82865524291992 85.88994598388672 39.32871246337891 87 45 87 C 50.67128753662109 87 56.17134475708008 85.88994598388672 61.34737396240234 83.70066070556641 C 66.34834289550781 81.58542633056641 70.84031677246094 78.55665588378906 74.698486328125 74.698486328125 C 78.55665588378906 70.84031677246094 81.58542633056641 66.34834289550781 83.70066070556641 61.34737396240234 C 85.88994598388672 56.17134475708008 87 50.67128753662109 87 45 C 87 39.32871246337891 85.88994598388672 33.82865524291992 83.70066070556641 28.65262985229492 C 81.58542633056641 23.65165710449219 78.55665588378906 19.15968322753906 74.698486328125 15.301513671875 C 70.84031677246094 11.44334411621094 66.34834289550781 8.414573669433594 61.34737396240234 6.299339294433594 C 56.17134475708008 4.110054016113281 50.67128753662109 3 45 3 M 45 0 C 69.85281372070312 0 90 20.14718627929688 90 45 C 90 69.85281372070312 69.85281372070312 90 45 90 C 20.14718627929688 90 0 69.85281372070312 0 45 C 0 20.14718627929688 20.14718627929688 0 45 0 Z" stroke="none" fill="#00282e"/>
          </g>
        </g>
      </g>
    </g>
    <g id="Grupo_1151948" data-name="Grupo 1151948" transform="translate(1323.5 418.528)">
      <g id="Grupo_1151947" data-name="Grupo 1151947" clip-path="url(#clip-path)">
        <path id="Trazado_987094" data-name="Trazado 987094" d="M242.279,317.16H228.865a3.439,3.439,0,1,0,0,6.879h13.413a3.439,3.439,0,1,0,0-6.879" transform="translate(-193.824 -272.698)" fill="#ffe07d"/>
        <path id="Trazado_987095" data-name="Trazado 987095" d="M232.739,323.038a3.423,3.423,0,0,0,2.431,1.008h-6.3a3.439,3.439,0,1,1,0-6.878h6.3a3.438,3.438,0,0,0-2.431,5.87" transform="translate(-193.824 -272.705)" fill="#ffd064"/>
        <path id="Trazado_987096" data-name="Trazado 987096" d="M246.38,268.094H232.966a3.439,3.439,0,0,0,0,6.878H246.38a3.439,3.439,0,0,0,0-6.878" transform="translate(-197.35 -230.511)" fill="#ffe07d"/>
        <path id="Trazado_987097" data-name="Trazado 987097" d="M236.84,273.972a3.424,3.424,0,0,0,2.43,1.008h-6.3a3.439,3.439,0,1,1,0-6.877h6.3a3.438,3.438,0,0,0-2.43,5.87" transform="translate(-197.35 -230.517)" fill="#ffd064"/>
        <path id="Trazado_987098" data-name="Trazado 987098" d="M250.478,219.028H237.064a3.439,3.439,0,1,0,0,6.878h13.413a3.439,3.439,0,0,0,0-6.878" transform="translate(-200.874 -188.323)" fill="#ffe07d"/>
        <path id="Trazado_987099" data-name="Trazado 987099" d="M240.938,224.9a3.423,3.423,0,0,0,2.43,1.008h-6.3a3.439,3.439,0,1,1,0-6.878h6.3a3.438,3.438,0,0,0-2.431,5.87" transform="translate(-200.874 -188.326)" fill="#ffd064"/>
        <path id="Trazado_987100" data-name="Trazado 987100" d="M234.083,169.957H220.669a3.439,3.439,0,0,0,0,6.879h13.414a3.439,3.439,0,0,0,0-6.879" transform="translate(-186.777 -146.131)" fill="#ffe07d"/>
        <path id="Trazado_987101" data-name="Trazado 987101" d="M224.543,175.835a3.422,3.422,0,0,0,2.43,1.008h-6.3a3.439,3.439,0,1,1,0-6.878h6.3a3.438,3.438,0,0,0-2.43,5.87" transform="translate(-186.777 -146.138)" fill="#ffd064"/>
        <path id="Trazado_987102" data-name="Trazado 987102" d="M246.38,120.891H232.966a3.439,3.439,0,0,0,0,6.878H246.38a3.439,3.439,0,0,0,0-6.878" transform="translate(-197.35 -103.944)" fill="#ffe07d"/>
        <path id="Trazado_987103" data-name="Trazado 987103" d="M236.84,126.769a3.422,3.422,0,0,0,2.43,1.008h-6.3a3.439,3.439,0,1,1,0-6.878h6.3a3.438,3.438,0,0,0-2.43,5.87" transform="translate(-197.35 -103.95)" fill="#ffd064"/>
        <path id="Trazado_987104" data-name="Trazado 987104" d="M238.181,71.824H224.768a3.439,3.439,0,1,0,0,6.879h13.413a3.439,3.439,0,1,0,0-6.879" transform="translate(-190.301 -61.755)" fill="#ffe07d"/>
        <path id="Trazado_987105" data-name="Trazado 987105" d="M228.641,77.7a3.421,3.421,0,0,0,2.43,1.008h-6.3a3.439,3.439,0,1,1,0-6.877h6.3a3.438,3.438,0,0,0-2.43,5.87" transform="translate(-190.301 -61.762)" fill="#ffd064"/>
        <path id="Trazado_987106" data-name="Trazado 987106" d="M132.7,317.16H119.284a3.439,3.439,0,1,0,0,6.879H132.7a3.439,3.439,0,0,0,0-6.879" transform="translate(-99.604 -272.698)" fill="#ffe07d"/>
        <path id="Trazado_987107" data-name="Trazado 987107" d="M123.157,323.038a3.422,3.422,0,0,0,2.431,1.008h-6.3a3.439,3.439,0,1,1,0-6.878h6.3a3.438,3.438,0,0,0-2.431,5.87" transform="translate(-99.604 -272.705)" fill="#ffd064"/>
        <path id="Trazado_987108" data-name="Trazado 987108" d="M140.9,268.094H127.482a3.439,3.439,0,0,0,0,6.878H140.9a3.439,3.439,0,1,0,0-6.878" transform="translate(-106.654 -230.511)" fill="#ffe07d"/>
        <path id="Trazado_987109" data-name="Trazado 987109" d="M131.356,273.972a3.424,3.424,0,0,0,2.43,1.008h-6.3a3.439,3.439,0,1,1,0-6.877h6.3a3.438,3.438,0,0,0-2.43,5.87" transform="translate(-106.654 -230.517)" fill="#ffd064"/>
        <path id="Trazado_987110" data-name="Trazado 987110" d="M124.5,219.028H111.084a3.439,3.439,0,1,0,0,6.878H124.5a3.439,3.439,0,1,0,0-6.878" transform="translate(-92.554 -188.323)" fill="#ffe07d"/>
        <path id="Trazado_987111" data-name="Trazado 987111" d="M114.958,224.9a3.425,3.425,0,0,0,2.431,1.008h-6.3a3.439,3.439,0,1,1,0-6.878h6.3a3.439,3.439,0,0,0-2.431,5.87" transform="translate(-92.554 -188.326)" fill="#ffd064"/>
        <rect id="Rectángulo_408560" data-name="Rectángulo 408560" width="10.534" height="4.547" transform="translate(7.402 27.886) rotate(-44.999)" fill="#407093"/>
        <rect id="Rectángulo_408561" data-name="Rectángulo 408561" width="10.534" height="2.273" transform="matrix(0.707, -0.707, 0.707, 0.707, 7.401, 27.885)" fill="#365e7d"/>
        <path id="Trazado_987112" data-name="Trazado 987112" d="M103.721,19.1A13.478,13.478,0,1,1,90.244,5.625,13.478,13.478,0,0,1,103.721,19.1" transform="translate(-66.004 -4.836)" fill="#f4fbff"/>
        <path id="Trazado_987113" data-name="Trazado 987113" d="M91.381,32.529q-.562.048-1.137.048a13.478,13.478,0,0,1,0-26.956q.575,0,1.137.048a13.478,13.478,0,0,0,0,26.86" transform="translate(-66.004 -4.833)" fill="#e4f6ff"/>
        <path id="Trazado_987114" data-name="Trazado 987114" d="M124,43.325a9.528,9.528,0,1,1-2.791-6.737A9.528,9.528,0,0,1,124,43.325" transform="translate(-90.23 -29.059)" fill="#d3effb"/>
        <path id="Trazado_987115" data-name="Trazado 987115" d="M116.368,52.663a9.528,9.528,0,1,1,0-18.677,9.53,9.53,0,0,0,0,18.677" transform="translate(-90.23 -29.059)" fill="#b1e4f9"/>
        <path id="Trazado_987116" data-name="Trazado 987116" d="M8.877,185.449l-2.636-2.636a2.1,2.1,0,0,1,0-2.975l6.687-6.687a2.1,2.1,0,0,1,2.975,0l2.636,2.636a2.1,2.1,0,0,1,0,2.975l-6.686,6.686a2.1,2.1,0,0,1-2.975,0" transform="translate(-4.836 -148.348)" fill="#a77d73"/>
        <path id="Trazado_987117" data-name="Trazado 987117" d="M8.168,184.74l-1.929-1.929a2.1,2.1,0,0,1,0-2.975l6.687-6.686a2.1,2.1,0,0,1,2.975,0l1.929,1.929a2.1,2.1,0,0,0-2.975,0l-6.686,6.686a2.1,2.1,0,0,0,0,2.975" transform="translate(-4.834 -148.346)" fill="#98695e"/>
        <path id="Trazado_987118" data-name="Trazado 987118" d="M137.623,72.562a1.8,1.8,0,0,1-1.424-.7l-3.015-3.889a1.8,1.8,0,1,1,2.85-2.209l1.353,1.746,2.641-4.677a1.8,1.8,0,1,1,3.139,1.773l-3.974,7.037a1.8,1.8,0,0,1-1.439.912c-.044,0-.088,0-.131,0" transform="translate(-114.188 -53.238)" fill="#b3e59f"/>
        <path id="Trazado_987119" data-name="Trazado 987119" d="M53.258,41.023a4.2,4.2,0,0,0-1.238-2.989c-.088-.087-.178-.169-.272-.248a4.227,4.227,0,0,0-1.234-7.771,4.22,4.22,0,0,0-.114-5.63,4.23,4.23,0,0,0,.411-7.834,4.225,4.225,0,0,0-1.044-6.825.788.788,0,0,0-.7,1.411,2.669,2.669,0,0,1,.692.5,2.651,2.651,0,0,1-1.865,4.524H38.38a14.284,14.284,0,0,0-.286-5.3H46.3a.789.789,0,1,0,0-1.577h-8.7A14.265,14.265,0,1,0,12.224,21.95l-1.632,1.632a2.895,2.895,0,0,0-3.059.664L.847,30.932a2.892,2.892,0,0,0,0,4.09l2.636,2.636a2.9,2.9,0,0,0,4.09,0l6.687-6.687a2.895,2.895,0,0,0,.664-3.059l1.631-1.631a14.248,14.248,0,0,0,13.114,1.176,4.188,4.188,0,0,0,.929,2.458H20.107a.789.789,0,0,0,0,1.577H31.943a2.651,2.651,0,0,1,.016,5.3H18.53a2.651,2.651,0,0,1-1.183-5.023.789.789,0,0,0-.7-1.411,4.228,4.228,0,0,0,.977,7.913,4.217,4.217,0,0,0,.279,5.794,4.227,4.227,0,0,0,1.779,8.062H33.093a4.236,4.236,0,0,0,.978-.116,4.223,4.223,0,0,0,.971.115H48.455a4.227,4.227,0,0,0,2.99-7.216c-.087-.087-.178-.169-.271-.248a4.229,4.229,0,0,0,2.084-3.642m-1-6.879A2.654,2.654,0,0,1,49.6,36.795H36.191a2.655,2.655,0,0,1-.849-.139,4.225,4.225,0,0,0,0-5.025,2.655,2.655,0,0,1,.837-.137H49.6a2.652,2.652,0,0,1,2.651,2.65M34.242,43.673H20.828a2.65,2.65,0,0,1-.016-5.3h13.43a2.651,2.651,0,0,1,0,5.3M49.029,17.736a2.651,2.651,0,1,1,0,5.3H35.616c-.044,0-.087,0-.13,0a14.222,14.222,0,0,0,2.592-5.3ZM13.144,29.857,6.458,36.543a1.317,1.317,0,0,1-1.86,0L1.962,33.907a1.315,1.315,0,0,1,0-1.86l6.687-6.687a1.317,1.317,0,0,1,1.86,0L13.144,28a1.316,1.316,0,0,1,0,1.86m.848-3.242-2.1-2.1,1.27-1.27a14.35,14.35,0,0,0,2.1,2.1ZM11.55,14.266A12.689,12.689,0,1,1,24.239,26.955,12.7,12.7,0,0,1,11.55,14.266m22.5,10.349H47.306a2.651,2.651,0,0,1,.014,5.3H33.892a2.647,2.647,0,0,1-2.578-3.265,14.384,14.384,0,0,0,2.735-2.037M19.679,50.552a2.651,2.651,0,1,1,0-5.3H33.093a2.651,2.651,0,0,1,0,5.3Zm28.776,0H36.383a4.217,4.217,0,0,0,0-5.3H48.455a2.65,2.65,0,0,1,0,5.3m.574-6.878h-11.5a4.218,4.218,0,0,0,0-5.3h11.5a2.651,2.651,0,0,1,0,5.3"/>
        <path id="Trazado_987120" data-name="Trazado 987120" d="M109.632,28.172a10.317,10.317,0,1,0,10.316,10.316,10.328,10.328,0,0,0-10.316-10.316m0,19.056a8.74,8.74,0,1,1,8.739-8.74,8.75,8.75,0,0,1-8.739,8.74" transform="translate(-85.393 -24.223)"/>
        <path id="Trazado_987121" data-name="Trazado 987121" d="M138.043,56.636a2.6,2.6,0,0,0-3.531.982l-2.058,3.644-.626-.809a2.592,2.592,0,1,0-4.1,3.176l3.014,3.889a2.61,2.61,0,0,0,2.048,1c.062,0,.125,0,.188-.007a2.585,2.585,0,0,0,2.068-1.31l3.974-7.037a2.591,2.591,0,0,0-.982-3.53m-.392,2.755-3.974,7.037a1.014,1.014,0,0,1-1.685.123l-3.015-3.889a1.014,1.014,0,0,1,1.6-1.243l1.353,1.746a.789.789,0,0,0,1.31-.1l2.641-4.677a1.014,1.014,0,0,1,1.861.227,1,1,0,0,1-.094.77" transform="translate(-109.358 -48.409)"/>
      </g>
    </g>
  </g>
</svg>
