<svg xmlns="http://www.w3.org/2000/svg" xmlns:xlink="http://www.w3.org/1999/xlink" width="108" height="108" viewBox="0 0 108 108">
  <defs>
    <filter id="Trazado_982538" x="0" y="0" width="108" height="108" filterUnits="userSpaceOnUse">
      <feOffset dy="3" input="SourceAlpha"/>
      <feGaussianBlur stdDeviation="3" result="blur"/>
      <feFlood flood-opacity="0.161"/>
      <feComposite operator="in" in2="blur"/>
      <feComposite in="SourceGraphic"/>
    </filter>
    <clipPath id="clip-path">
      <rect id="Rectángulo_408580" data-name="Rectángulo 408580" width="52.656" height="52.562" fill="none"/>
    </clipPath>
  </defs>
  <g id="Grupo_1151973" data-name="Grupo 1151973" transform="translate(-1292 -996.375)">
    <g id="Grupo_1151581" data-name="Grupo 1151581" transform="translate(1301 1002.375)">
      <g id="Grupo_1150893" data-name="Grupo 1150893">
        <g transform="matrix(1, 0, 0, 1, -9, -6)" filter="url(#Trazado_982538)">
          <g id="Trazado_982538-2" data-name="Trazado 982538" transform="translate(9 6)" fill="#f3f3f3">
            <path d="M 45 88.5 C 39.12687683105469 88.5 33.43022537231445 87.35007476806641 28.06830024719238 85.08217620849609 C 22.88852500915527 82.89131164550781 18.23629951477051 79.75458526611328 14.2408504486084 75.75914764404297 C 10.24541282653809 71.76370239257812 7.108687400817871 67.11147308349609 4.917825222015381 61.93170166015625 C 2.649924993515015 56.56977462768555 1.5 50.87312316894531 1.5 45 C 1.5 39.12687683105469 2.649924993515015 33.43022537231445 4.917825222015381 28.06830024719238 C 7.108687400817871 22.88852500915527 10.24541282653809 18.23629951477051 14.2408504486084 14.2408504486084 C 18.23629951477051 10.24541282653809 22.88852500915527 7.108687400817871 28.06830024719238 4.917825222015381 C 33.43022537231445 2.649924993515015 39.12687683105469 1.5 45 1.5 C 50.87312316894531 1.5 56.56977462768555 2.649924993515015 61.93170166015625 4.917825222015381 C 67.11147308349609 7.108687400817871 71.76370239257812 10.24541282653809 75.75914764404297 14.2408504486084 C 79.75458526611328 18.23629951477051 82.89131164550781 22.88852500915527 85.08217620849609 28.06830024719238 C 87.35007476806641 33.43022537231445 88.5 39.12687683105469 88.5 45 C 88.5 50.87312316894531 87.35007476806641 56.56977462768555 85.08217620849609 61.93170166015625 C 82.89131164550781 67.11147308349609 79.75458526611328 71.76370239257812 75.75914764404297 75.75914764404297 C 71.76370239257812 79.75458526611328 67.11147308349609 82.89131164550781 61.93170166015625 85.08217620849609 C 56.56977462768555 87.35007476806641 50.87312316894531 88.5 45 88.5 Z" stroke="none"/>
            <path d="M 45 3 C 39.32871246337891 3 33.82865524291992 4.110054016113281 28.65262985229492 6.299339294433594 C 23.65165710449219 8.414573669433594 19.15968322753906 11.44334411621094 15.301513671875 15.301513671875 C 11.44334411621094 19.15968322753906 8.414573669433594 23.65165710449219 6.299339294433594 28.65262985229492 C 4.110054016113281 33.82865524291992 3 39.32871246337891 3 45 C 3 50.67128753662109 4.110054016113281 56.17134475708008 6.299339294433594 61.34737396240234 C 8.414573669433594 66.34834289550781 11.44334411621094 70.84031677246094 15.301513671875 74.698486328125 C 19.15968322753906 78.55665588378906 23.65165710449219 81.58542633056641 28.65262985229492 83.70066070556641 C 33.82865524291992 85.88994598388672 39.32871246337891 87 45 87 C 50.67128753662109 87 56.17134475708008 85.88994598388672 61.34737396240234 83.70066070556641 C 66.34834289550781 81.58542633056641 70.84031677246094 78.55665588378906 74.698486328125 74.698486328125 C 78.55665588378906 70.84031677246094 81.58542633056641 66.34834289550781 83.70066070556641 61.34737396240234 C 85.88994598388672 56.17134475708008 87 50.67128753662109 87 45 C 87 39.32871246337891 85.88994598388672 33.82865524291992 83.70066070556641 28.65262985229492 C 81.58542633056641 23.65165710449219 78.55665588378906 19.15968322753906 74.698486328125 15.301513671875 C 70.84031677246094 11.44334411621094 66.34834289550781 8.414573669433594 61.34737396240234 6.299339294433594 C 56.17134475708008 4.110054016113281 50.67128753662109 3 45 3 M 45 0 C 69.85281372070312 0 90 20.14718627929688 90 45 C 90 69.85281372070312 69.85281372070312 90 45 90 C 20.14718627929688 90 0 69.85281372070312 0 45 C 0 20.14718627929688 20.14718627929688 0 45 0 Z" stroke="none" fill="#183164"/>
          </g>
        </g>
      </g>
    </g>
    <g id="Grupo_1151964" data-name="Grupo 1151964" transform="translate(1320.345 1020.813)">
      <rect id="Rectángulo_408574" data-name="Rectángulo 408574" width="8.776" height="26.328" transform="translate(16.674 22.724)" fill="#ffcd00"/>
      <g id="Grupo_1151963" data-name="Grupo 1151963" transform="translate(0 0)">
        <g id="Grupo_1151962" data-name="Grupo 1151962" clip-path="url(#clip-path)">
          <path id="Trazado_987174" data-name="Trazado 987174" d="M50.51,51.48a4.388,4.388,0,0,1,.878-8.688,1.755,1.755,0,1,0-1.755-1.755H47a4.413,4.413,0,0,1,2.633-4.028V34.894h2.633v1.843a4.388,4.388,0,0,1-.878,8.688,1.755,1.755,0,1,0,1.755,1.755h2.633a4.413,4.413,0,0,1-2.633,4.028v2.115H50.51Z" transform="translate(-5.753 -4.271)" fill="#ff5023"/>
          <path id="Trazado_987175" data-name="Trazado 987175" d="M13.286,55.894H51.9v2.633H1V55.894H13.286Z" transform="translate(-0.122 -6.841)" fill="#d1d3d4"/>
          <rect id="Rectángulo_408575" data-name="Rectángulo 408575" width="8.776" height="17.552" transform="translate(28.961 31.5)" fill="#d80027"/>
          <rect id="Rectángulo_408576" data-name="Rectángulo 408576" width="4.388" height="17.552" transform="translate(33.348 31.5)" fill="#bd0022"/>
          <rect id="Rectángulo_408577" data-name="Rectángulo 408577" width="4.388" height="26.328" transform="translate(21.062 22.724)" fill="#ebbf00"/>
          <rect id="Rectángulo_408578" data-name="Rectángulo 408578" width="8.776" height="35.104" transform="translate(4.388 13.948)" fill="#5eac24"/>
          <path id="Trazado_987176" data-name="Trazado 987176" d="M18.557,1,41.239,18.417l2.138-2.785L45.9,25.315l-10.005.061,2.138-2.784L15.35,5.176Z" transform="translate(-1.879 -0.122)" fill="#7ed63e"/>
          <rect id="Rectángulo_408579" data-name="Rectángulo 408579" width="4.388" height="35.104" transform="translate(8.776 13.948)" fill="#4e901e"/>
          <path id="Trazado_987177" data-name="Trazado 987177" d="M0,50.875v2.633a.877.877,0,0,0,.878.878h50.9a.878.878,0,0,0,.878-.878V50.875A.878.878,0,0,0,51.778,50h-3.51v-.7A5.288,5.288,0,0,0,50.9,44.732a.878.878,0,0,0-.878-.878H47.39a.878.878,0,0,0-.878.878.878.878,0,1,1-.878-.878A5.267,5.267,0,0,0,47.39,33.623V32.446a.878.878,0,0,0-.878-.878H43.88a.878.878,0,0,0-.878.878v1.58a5.288,5.288,0,0,0-2.633,4.563.878.878,0,0,0,.878.878H43.88a.878.878,0,0,0,.878-.878.878.878,0,1,1,.878.878,5.3,5.3,0,0,0-3.762,1.574l-.007.007A5.275,5.275,0,0,0,43.88,49.7V50H38.614V33.323a.878.878,0,0,0-.878-.878H28.961a.878.878,0,0,0-.878.878V50H26.328V24.548a.878.878,0,0,0-.878-.878H16.674a.877.877,0,0,0-.878.878V50H14.041V15.772a.877.877,0,0,0-.878-.878H4.388a.877.877,0,0,0-.878.878V50H.878A.877.877,0,0,0,0,50.875M12.286,50H5.266V16.649h7.021Zm12.286,0H17.552V25.425h7.021Zm12.286,0H29.838V34.2h7.021Zm9.654-1.237V50h-.878v-.965a.878.878,0,0,0-.7-.861,3.518,3.518,0,0,1-1.814-5.894,3.55,3.55,0,0,1,2.518-1.056,2.633,2.633,0,1,0-2.483-3.51h-.916a3.552,3.552,0,0,1,2-2.348.876.876,0,0,0,.522-.8V33.323h.878v.965a.878.878,0,0,0,.7.861,3.51,3.51,0,0,1-.7,6.95,2.633,2.633,0,1,0,2.483,3.51h.916a3.552,3.552,0,0,1-2,2.348.876.876,0,0,0-.522.8M1.755,51.753H50.9v.878H1.755Z" transform="translate(0 -1.823)" fill="#231f20"/>
          <path id="Trazado_987178" data-name="Trazado 987178" d="M18.969.182,40.955,17.064l1.6-2.088a.877.877,0,0,1,1.545.313l2.523,9.682a.878.878,0,0,1-.843,1.1l-10.006.062a.878.878,0,0,1-.7-1.412l1.6-2.089L14.693,5.75a.878.878,0,0,1-.161-1.23L17.738.343a.878.878,0,0,1,1.23-.161M38.443,21.775a.877.877,0,0,1,.161,1.23L37.56,24.366l7.084-.044-1.786-6.854-1.045,1.36a.877.877,0,0,1-1.23.161L18.6,2.108,16.458,4.893Z" transform="translate(-1.757 0)" fill="#231f20"/>
        </g>
      </g>
    </g>
  </g>
</svg>
