<svg xmlns="http://www.w3.org/2000/svg" xmlns:xlink="http://www.w3.org/1999/xlink" width="108" height="108" viewBox="0 0 108 108">
  <defs>
    <filter id="Trazado_982538" x="0" y="0" width="108" height="108" filterUnits="userSpaceOnUse">
      <feOffset dy="3" input="SourceAlpha"/>
      <feGaussianBlur stdDeviation="3" result="blur"/>
      <feFlood flood-opacity="0.161"/>
      <feComposite operator="in" in2="blur"/>
      <feComposite in="SourceGraphic"/>
    </filter>
    <clipPath id="clip-path">
      <rect id="Rectángulo_408573" data-name="Rectángulo 408573" width="58" height="60" fill="none"/>
    </clipPath>
  </defs>
  <g id="Grupo_1151972" data-name="Grupo 1151972" transform="translate(-198.109 -930.084)">
    <g id="Grupo_1151939" data-name="Grupo 1151939" transform="translate(207.109 936.084)">
      <g id="Grupo_1150893" data-name="Grupo 1150893">
        <g transform="matrix(1, 0, 0, 1, -9, -6)" filter="url(#Trazado_982538)">
          <g id="Trazado_982538-2" data-name="Trazado 982538" transform="translate(9 6)" fill="#f3f3f3">
            <path d="M 45 88.5 C 39.12687683105469 88.5 33.43022537231445 87.35007476806641 28.06830024719238 85.08217620849609 C 22.88852500915527 82.89131164550781 18.23629951477051 79.75458526611328 14.2408504486084 75.75914764404297 C 10.24541282653809 71.76370239257812 7.108687400817871 67.11147308349609 4.917825222015381 61.93170166015625 C 2.649924993515015 56.56977462768555 1.5 50.87312316894531 1.5 45 C 1.5 39.12687683105469 2.649924993515015 33.43022537231445 4.917825222015381 28.06830024719238 C 7.108687400817871 22.88852500915527 10.24541282653809 18.23629951477051 14.2408504486084 14.2408504486084 C 18.23629951477051 10.24541282653809 22.88852500915527 7.108687400817871 28.06830024719238 4.917825222015381 C 33.43022537231445 2.649924993515015 39.12687683105469 1.5 45 1.5 C 50.87312316894531 1.5 56.56977462768555 2.649924993515015 61.93170166015625 4.917825222015381 C 67.11147308349609 7.108687400817871 71.76370239257812 10.24541282653809 75.75914764404297 14.2408504486084 C 79.75458526611328 18.23629951477051 82.89131164550781 22.88852500915527 85.08217620849609 28.06830024719238 C 87.35007476806641 33.43022537231445 88.5 39.12687683105469 88.5 45 C 88.5 50.87312316894531 87.35007476806641 56.56977462768555 85.08217620849609 61.93170166015625 C 82.89131164550781 67.11147308349609 79.75458526611328 71.76370239257812 75.75914764404297 75.75914764404297 C 71.76370239257812 79.75458526611328 67.11147308349609 82.89131164550781 61.93170166015625 85.08217620849609 C 56.56977462768555 87.35007476806641 50.87312316894531 88.5 45 88.5 Z" stroke="none"/>
            <path d="M 45 3 C 39.32871246337891 3 33.82865524291992 4.110054016113281 28.65262985229492 6.299339294433594 C 23.65165710449219 8.414573669433594 19.15968322753906 11.44334411621094 15.301513671875 15.301513671875 C 11.44334411621094 19.15968322753906 8.414573669433594 23.65165710449219 6.299339294433594 28.65262985229492 C 4.110054016113281 33.82865524291992 3 39.32871246337891 3 45 C 3 50.67128753662109 4.110054016113281 56.17134475708008 6.299339294433594 61.34737396240234 C 8.414573669433594 66.34834289550781 11.44334411621094 70.84031677246094 15.301513671875 74.698486328125 C 19.15968322753906 78.55665588378906 23.65165710449219 81.58542633056641 28.65262985229492 83.70066070556641 C 33.82865524291992 85.88994598388672 39.32871246337891 87 45 87 C 50.67128753662109 87 56.17134475708008 85.88994598388672 61.34737396240234 83.70066070556641 C 66.34834289550781 81.58542633056641 70.84031677246094 78.55665588378906 74.698486328125 74.698486328125 C 78.55665588378906 70.84031677246094 81.58542633056641 66.34834289550781 83.70066070556641 61.34737396240234 C 85.88994598388672 56.17134475708008 87 50.67128753662109 87 45 C 87 39.32871246337891 85.88994598388672 33.82865524291992 83.70066070556641 28.65262985229492 C 81.58542633056641 23.65165710449219 78.55665588378906 19.15968322753906 74.698486328125 15.301513671875 C 70.84031677246094 11.44334411621094 66.34834289550781 8.414573669433594 61.34737396240234 6.299339294433594 C 56.17134475708008 4.110054016113281 50.67128753662109 3 45 3 M 45 0 C 69.85281372070312 0 90 20.14718627929688 90 45 C 90 69.85281372070312 69.85281372070312 90 45 90 C 20.14718627929688 90 0 69.85281372070312 0 45 C 0 20.14718627929688 20.14718627929688 0 45 0 Z" stroke="none" fill="#004a54"/>
          </g>
        </g>
      </g>
    </g>
    <g id="Grupo_1151961" data-name="Grupo 1151961" transform="translate(223 949)">
      <path id="Trazado_987154" data-name="Trazado 987154" d="M34,37l-6-8V57H50V37Z" fill="#ffdaaa"/>
      <path id="Trazado_987155" data-name="Trazado 987155" d="M22,37H6V57H28V29Z" fill="#ffdaaa"/>
      <path id="Trazado_987156" data-name="Trazado 987156" d="M22,37H6v4H22l6-8V29Z" fill="#ffc477"/>
      <path id="Trazado_987157" data-name="Trazado 987157" d="M34,37H50v4H34l-6-8V29Z" fill="#ffc477"/>
      <path id="Trazado_987158" data-name="Trazado 987158" d="M7,29,1,37H22l6-8Z" fill="#ffb655"/>
      <path id="Trazado_987159" data-name="Trazado 987159" d="M50,37h5l-6-8H28l6,8Z" fill="#ffb655"/>
      <g id="Grupo_1151960" data-name="Grupo 1151960">
        <g id="Grupo_1151959" data-name="Grupo 1151959" clip-path="url(#clip-path)">
          <path id="Trazado_987160" data-name="Trazado 987160" d="M57,50a9,9,0,1,1-9-9,9,9,0,0,1,9,9" fill="#7ed63e"/>
          <path id="Trazado_987161" data-name="Trazado 987161" d="M42,15A14,14,0,1,1,28,1,14,14,0,0,1,42,15" fill="#ff5023"/>
          <path id="Trazado_987162" data-name="Trazado 987162" d="M38,15A10,10,0,1,1,28,5,10.016,10.016,0,0,1,38,15" fill="#ffa733"/>
          <path id="Trazado_987163" data-name="Trazado 987163" d="M28,23a8,8,0,1,1,8-8,8.009,8.009,0,0,1-8,8" fill="#ffb655"/>
          <path id="Trazado_987164" data-name="Trazado 987164" d="M32,12.5A2.5,2.5,0,0,0,29.5,10H25v5h4.5A2.5,2.5,0,0,0,32,12.5" fill="#ffb655"/>
          <path id="Trazado_987165" data-name="Trazado 987165" d="M30.5,15H25v5h5.5a2.5,2.5,0,0,0,0-5" fill="#ffb655"/>
          <path id="Trazado_987166" data-name="Trazado 987166" d="M51,40.461V38h4a1,1,0,0,0,.8-1.6l-6-8A1,1,0,0,0,49,28H35.451a15,15,0,1,0-14.9,0H7a1,1,0,0,0-.8.4l-6,8A1,1,0,0,0,1,38H5V57a1,1,0,0,0,1,1H42.026A9.993,9.993,0,1,0,51,40.461m-2-.41c-.329-.033-.663-.051-1-.051a9.981,9.981,0,0,0-7.981,16H29V32l4.2,5.6a1,1,0,0,0,.8.4H49ZM53,36H34.5L30,30H48.5ZM15,15A13,13,0,1,1,28,28,13.014,13.014,0,0,1,15,15M7.5,30H26l-4.5,6H3ZM7,38H22a1,1,0,0,0,.8-.4L27,32V56H7ZM48,58a8,8,0,1,1,8-8,8.009,8.009,0,0,1-8,8" fill="#231f20"/>
          <path id="Trazado_987167" data-name="Trazado 987167" d="M28,4A11,11,0,1,0,39,15,11.013,11.013,0,0,0,28,4m0,20a9,9,0,1,1,9-9,9.01,9.01,0,0,1-9,9" fill="#231f20"/>
          <path id="Trazado_987168" data-name="Trazado 987168" d="M43,47a1,1,0,0,0-1,1v4a1,1,0,0,0,2,0V48a1,1,0,0,0-1-1" fill="#231f20"/>
          <path id="Trazado_987169" data-name="Trazado 987169" d="M48,49a1,1,0,0,0,0-2H47a2,2,0,0,0-2,2v2a2,2,0,0,0,2,2h1a1,1,0,0,0,0-2H47V49Z" fill="#231f20"/>
          <path id="Trazado_987170" data-name="Trazado 987170" d="M52.5,47A2.5,2.5,0,0,0,50,49.5v1a2.5,2.5,0,0,0,5,0v-1A2.5,2.5,0,0,0,52.5,47m.5,3.5a.5.5,0,0,1-1,0v-1a.5.5,0,0,1,1,0Z" fill="#231f20"/>
          <path id="Trazado_987171" data-name="Trazado 987171" d="M16,48H10a1,1,0,0,0,0,2h6a1,1,0,0,0,0-2" fill="#231f20"/>
          <path id="Trazado_987172" data-name="Trazado 987172" d="M16,52H10a1,1,0,0,0,0,2h6a1,1,0,0,0,0-2" fill="#231f20"/>
          <path id="Trazado_987173" data-name="Trazado 987173" d="M32.336,14.534A3.474,3.474,0,0,0,30,9.05V8a1,1,0,0,0-2,0V9H27V8a1,1,0,0,0-2,0V9H24a1,1,0,0,0,0,2v8a1,1,0,0,0,0,2h1v1a1,1,0,0,0,2,0V21h1v1a1,1,0,0,0,2,0V21h.5a3.491,3.491,0,0,0,1.836-6.466M31,12.5A1.5,1.5,0,0,1,29.5,14H26V11h3.5A1.5,1.5,0,0,1,31,12.5M30.5,19H26V16h4.5a1.5,1.5,0,0,1,0,3" fill="#231f20"/>
        </g>
      </g>
    </g>
  </g>
</svg>
